<?xml version="1.0" encoding="UTF-8" standalone="no"?>
<!-- Generator: Gravit.io -->
<svg xmlns="http://www.w3.org/2000/svg" xmlns:xlink="http://www.w3.org/1999/xlink" style="isolation:isolate" viewBox="0 0 1795 2543" width="1795" height="2543"><defs><clipPath id="_clipPath_L2q5fLuU6NSbkAPaEaIUi1oYIEj0QTzn"><rect width="1795" height="2543"/></clipPath></defs><g clip-path="url(#_clipPath_L2q5fLuU6NSbkAPaEaIUi1oYIEj0QTzn)"><path d=" M 923.529 103.456 L 925.531 196.154 L 926.657 275.341 L 927.909 354.529 L 929.035 433.716 L 930.286 513.029 L 931.538 586.711 L 932.789 660.394 L 934.041 734.077 L 935.417 807.76 L 936.544 871.31 L 937.67 934.985 L 938.796 998.535 L 940.047 1062.21 L 941.049 1126.261 L 942.05 1190.436 L 943.051 1254.612 L 944.177 1318.787 L 945.178 1376.833 L 946.179 1434.879 L 947.18 1492.924 L 948.307 1551.095 L 949.308 1609.141 L 950.309 1667.186 L 951.31 1725.232 L 952.436 1783.403 L 954.313 1873.724 L 956.19 1964.17 L 958.068 2054.491 L 960.07 2144.937 L 954.939 2147.439 L 940.047 2147.814 L 870.47 2147.564 L 801.018 2147.439 L 703.909 2147.439 L 606.926 2147.564 L 509.943 2147.689 L 412.96 2147.814 L 376.92 2146.688 L 392.187 2050.988 L 402.323 1986.062 L 412.585 1921.136 L 422.721 1856.21 L 432.982 1791.409 L 449.376 1695.333 L 465.769 1599.258 L 479.534 1531.83 L 493.425 1464.402 L 507.19 1396.974 L 521.081 1329.671 L 535.722 1268.998 L 550.488 1208.45 L 565.255 1147.778 L 580.021 1087.23 L 605.55 998.41 L 631.078 909.716 L 649.223 850.669 L 667.494 791.623 L 685.639 732.576 L 703.909 673.53 L 729.062 600.973 L 754.215 528.416 L 779.368 455.858 L 804.646 383.427 L 828.548 316.499 L 852.45 249.696 L 876.351 182.894 L 900.378 116.091 L 923.529 103.456 Z " fill-rule="evenodd" fill="rgb(253,253,235)"/><path d=" M 926.282 103.456 L 920.651 103.581 L 922.653 196.279 L 928.284 196.154 L 926.282 103.456 Z " fill="rgb(0,0,0)"/><path d=" M 928.284 196.154 L 922.653 196.279 L 923.779 275.467 L 925.031 354.654 L 926.157 433.841 L 927.408 513.154 L 933.04 513.029 L 931.788 433.716 L 930.662 354.529 L 929.411 275.341 L 928.284 196.154 Z " fill="rgb(0,0,0)"/><line x1="928.284" y1="196.154" x2="922.653" y2="196.279"/><path d=" M 933.04 513.029 L 927.408 513.154 L 928.66 586.836 L 929.911 660.519 L 931.162 734.202 L 932.539 807.885 L 938.17 807.76 L 936.794 734.077 L 935.542 660.394 L 934.291 586.711 L 933.04 513.029 Z " fill="rgb(0,0,0)"/><line x1="927.408" y1="513.154" x2="933.04" y2="513.029"/><path d=" M 938.17 807.76 L 932.539 807.885 L 933.665 871.435 L 934.792 935.11 L 935.918 998.66 L 937.169 1062.335 L 942.8 1062.21 L 941.549 998.535 L 940.423 934.985 L 939.297 871.31 L 938.17 807.76 Z " fill="rgb(0,0,0)"/><line x1="932.539" y1="807.885" x2="938.17" y2="807.76"/><path d=" M 942.8 1062.21 L 937.169 1062.335 L 938.17 1126.386 L 939.171 1190.561 L 940.172 1254.737 L 941.299 1318.912 L 946.93 1318.787 L 945.804 1254.612 L 944.803 1190.436 L 943.802 1126.261 L 942.8 1062.21 Z " fill="rgb(0,0,0)"/><line x1="942.8" y1="1062.21" x2="937.169" y2="1062.335"/><path d=" M 946.93 1318.787 L 941.299 1318.912 L 942.3 1376.958 L 943.301 1435.004 L 944.302 1493.049 L 945.428 1551.22 L 946.43 1609.266 L 947.431 1667.311 L 948.432 1725.357 L 949.558 1783.528 L 955.189 1783.403 L 954.063 1725.232 L 953.062 1667.186 L 952.061 1609.141 L 951.06 1551.095 L 949.933 1492.924 L 948.932 1434.879 L 947.931 1376.833 L 946.93 1318.787 Z " fill="rgb(0,0,0)"/><line x1="941.299" y1="1318.912" x2="946.93" y2="1318.787"/><path d=" M 955.189 1783.403 L 949.558 1783.528 L 951.435 1873.849 L 953.312 1964.295 L 955.189 2054.616 L 957.192 2145.062 L 962.823 2144.937 L 960.821 2054.491 L 958.943 1964.17 L 957.066 1873.724 L 955.189 1783.403 Z " fill="rgb(0,0,0)"/><line x1="949.558" y1="1783.528" x2="955.189" y2="1783.403"/><path d=" M 961.321 2147.439 L 958.693 2142.435 L 953.563 2144.937 L 956.19 2149.941 L 961.321 2147.439 Z " fill="rgb(0,0,0)"/><path d=" M 962.823 2144.937 L 962.823 2146.688 L 961.321 2147.439 L 958.693 2142.435 L 957.192 2145.062 L 962.823 2144.937 Z " fill="rgb(0,0,0)"/><path d=" M 955.064 2150.191 L 954.814 2144.687 L 939.922 2145.062 L 940.172 2150.566 L 955.064 2150.191 Z " fill="rgb(0,0,0)"/><path d=" M 956.19 2149.941 L 955.69 2150.191 L 955.064 2150.191 L 954.814 2144.687 L 953.563 2144.937 L 956.19 2149.941 Z " fill="rgb(0,0,0)"/><path d=" M 940.047 2150.691 L 940.047 2145.062 L 870.47 2144.812 L 801.018 2144.687 L 801.018 2150.316 L 870.47 2150.441 L 940.047 2150.691 Z " fill="rgb(0,0,0)"/><path d=" M 940.172 2150.566 L 940.047 2150.691 L 940.047 2145.062 L 939.922 2145.062 L 940.172 2150.566 Z " fill="rgb(0,0,0)"/><path d=" M 801.018 2150.316 L 801.018 2144.687 L 703.909 2144.687 L 606.926 2144.812 L 509.943 2144.937 L 412.96 2145.062 L 412.96 2150.691 L 509.943 2150.566 L 606.926 2150.441 L 703.909 2150.316 L 801.018 2150.316 Z " fill="rgb(0,0,0)"/><line x1="801.018" y1="2144.687" x2="801.018" y2="2150.316"/><path d=" M 412.835 2150.566 L 413.085 2145.062 L 377.045 2143.936 L 376.795 2149.44 L 412.835 2150.566 Z " fill="rgb(0,0,0)"/><path d=" M 412.96 2150.691 L 412.835 2150.566 L 413.085 2145.062 L 412.96 2145.062 L 412.96 2150.691 Z " fill="rgb(0,0,0)"/><path d=" M 374.167 2146.188 L 379.673 2147.189 L 394.94 2051.488 L 389.434 2050.488 L 374.167 2146.188 Z " fill="rgb(0,0,0)"/><path d=" M 376.795 2149.44 L 373.666 2149.315 L 374.167 2146.188 L 379.673 2147.189 L 377.045 2143.936 L 376.795 2149.44 Z " fill="rgb(0,0,0)"/><path d=" M 389.434 2050.488 L 394.94 2051.488 L 405.076 1986.562 L 415.338 1921.636 L 425.474 1856.71 L 435.736 1791.909 L 430.229 1790.908 L 419.968 1855.709 L 409.832 1920.635 L 399.57 1985.562 L 389.434 2050.488 Z " fill="rgb(0,0,0)"/><line x1="394.94" y1="2051.488" x2="389.434" y2="2050.488"/><path d=" M 430.229 1790.908 L 435.736 1792.034 L 452.129 1695.959 L 468.522 1599.883 L 463.016 1598.757 L 446.623 1694.833 L 430.229 1790.908 Z " fill="rgb(0,0,0)"/><path d=" M 430.229 1790.908 L 435.736 1792.034 L 435.736 1791.909 L 430.229 1790.908 Z " fill="rgb(0,0,0)"/><path d=" M 463.016 1598.757 L 468.522 1599.883 L 482.287 1532.455 L 496.178 1465.027 L 509.943 1397.599 L 523.834 1330.296 L 518.328 1329.17 L 504.437 1396.473 L 490.672 1463.901 L 476.781 1531.329 L 463.016 1598.757 Z " fill="rgb(0,0,0)"/><line x1="463.016" y1="1598.757" x2="468.522" y2="1599.883"/><path d=" M 518.328 1328.92 L 523.708 1330.421 L 538.35 1269.749 L 553.116 1209.201 L 567.883 1148.528 L 582.649 1087.981 L 577.268 1086.479 L 562.502 1147.027 L 547.735 1207.7 L 532.969 1268.247 L 518.328 1328.92 Z " fill="rgb(0,0,0)"/><path d=" M 518.328 1329.17 L 518.703 1327.544 L 518.328 1328.92 L 523.708 1330.421 L 523.834 1330.296 L 518.328 1329.17 Z " fill="rgb(0,0,0)"/><path d=" M 577.268 1086.479 L 582.649 1088.106 L 608.178 999.286 L 633.706 910.591 L 628.325 908.965 L 602.797 997.66 L 577.268 1086.479 Z " fill="rgb(0,0,0)"/><path d=" M 577.268 1086.479 L 582.649 1088.106 L 582.649 1087.981 L 577.268 1086.479 Z " fill="rgb(0,0,0)"/><path d=" M 628.325 908.965 L 633.706 910.591 L 651.851 851.545 L 670.122 792.498 L 688.267 733.452 L 706.537 674.405 L 701.156 672.779 L 682.886 731.826 L 664.741 790.872 L 646.47 849.918 L 628.325 908.965 Z " fill="rgb(0,0,0)"/><line x1="628.325" y1="908.965" x2="633.706" y2="910.591"/><path d=" M 701.281 672.529 L 706.537 674.531 L 731.69 601.973 L 756.843 529.416 L 781.996 456.859 L 807.274 384.427 L 802.019 382.426 L 776.74 454.858 L 751.587 527.415 L 726.434 599.972 L 701.281 672.529 Z " fill="rgb(0,0,0)"/><path d=" M 701.156 672.779 L 700.906 673.78 L 701.281 672.529 L 706.537 674.531 L 706.537 674.405 L 701.156 672.779 Z " fill="rgb(0,0,0)"/><path d=" M 802.019 382.426 L 807.274 384.427 L 831.176 317.5 L 855.078 250.697 L 878.979 183.895 L 903.006 117.092 L 897.75 115.09 L 873.724 181.893 L 849.822 248.696 L 825.92 315.498 L 802.019 382.426 Z " fill="rgb(0,0,0)"/><line x1="802.019" y1="382.426" x2="807.274" y2="384.427"/><path d=" M 899.002 113.589 L 901.63 118.593 L 924.78 105.958 L 922.153 100.954 L 899.002 113.589 Z " fill="rgb(0,0,0)"/><path d=" M 897.75 115.09 L 898.126 114.09 L 899.002 113.589 L 901.63 118.593 L 903.006 117.092 L 897.75 115.09 Z " fill="rgb(0,0,0)"/><path d=" M 922.153 100.954 L 926.157 98.828 L 926.282 103.456 L 920.651 103.581 L 924.78 105.958 L 922.153 100.954 Z " fill="rgb(0,0,0)"/><path d=" M 1043.913 2264.281 L 1044.163 2263.405 L 1044.789 2262.655 L 1045.665 2262.029 L 1046.791 2261.529 L 1054.925 2261.529 L 1056.427 2265.031 L 1057.929 2287.174 L 1057.303 2288.3 L 1056.552 2289.175 L 1054.425 2290.301 L 1046.791 2290.176 L 1045.79 2289.426 L 1045.165 2288.55 L 1044.664 2287.549 L 1044.539 2286.673 L 1043.913 2264.281 Z  M 645.344 2275.29 L 656.231 2274.289 L 670.247 2273.538 L 687.516 2273.163 L 707.914 2273.163 L 708.915 2273.538 L 709.666 2274.164 L 710.166 2274.664 L 710.417 2275.415 L 710.417 2276.916 L 710.166 2277.792 L 709.666 2278.792 L 649.349 2279.042 L 645.344 2275.29 Z  M 583.525 2342.843 L 582.149 2343.343 L 581.773 2343.593 L 581.523 2343.969 L 582.023 2344.594 L 583.4 2345.469 L 594.913 2346.846 L 597.291 2346.345 L 598.041 2345.595 L 597.916 2345.094 L 597.416 2344.469 L 595.163 2343.093 L 583.525 2342.843 Z  M 723.306 2271.537 L 721.929 2271.912 L 720.928 2272.537 L 720.177 2273.538 L 719.677 2274.539 L 719.677 2275.665 L 720.177 2276.791 L 721.053 2277.792 L 722.555 2278.667 L 760.597 2278.667 L 763.851 2279.918 L 766.604 2281.419 L 767.856 2282.295 L 768.982 2283.296 L 770.859 2285.297 L 771.61 2285.798 L 772.235 2285.798 L 772.611 2285.422 L 772.736 2284.672 L 865.214 2285.923 L 957.692 2287.299 L 958.443 2284.422 L 959.194 2280.919 L 958.693 2266.783 L 958.443 2265.532 L 958.068 2264.781 L 957.567 2264.406 L 956.941 2264.531 L 898.501 2266.282 L 840.061 2268.034 L 781.621 2269.785 L 723.306 2271.537 Z  M 490.296 2289.551 L 549.612 2289.551 L 609.054 2289.551 L 604.549 2291.552 L 600.294 2293.429 L 592.16 2297.182 L 584.777 2301.06 L 578.269 2304.813 L 572.388 2308.566 L 567.382 2312.319 L 563.127 2316.072 L 559.749 2319.699 L 488.669 2319.324 L 490.296 2289.551 Z  M 1137.893 2330.083 L 1136.266 2330.708 L 1135.515 2331.333 L 1134.89 2331.959 L 1134.014 2333.585 L 1133.638 2335.337 L 1133.763 2337.213 L 1134.389 2338.839 L 1134.89 2339.59 L 1135.64 2340.09 L 1136.391 2340.591 L 1137.392 2340.841 L 1145.526 2340.966 L 1154.787 2340.716 L 1176.686 2339.59 L 1178.313 2338.965 L 1179.689 2338.214 L 1180.816 2337.463 L 1181.817 2336.463 L 1182.818 2334.461 L 1183.068 2333.335 L 1183.068 2332.334 L 1182.443 2330.583 L 1181.942 2329.832 L 1181.191 2329.207 L 1180.315 2328.832 L 1179.314 2328.581 L 1178.188 2328.581 L 1176.936 2328.832 L 1170.304 2328.832 L 1161.544 2329.082 L 1137.893 2330.083 Z  M 1137.643 2322.326 L 1178.438 2322.577 L 1180.44 2322.702 L 1182.192 2323.202 L 1183.819 2324.078 L 1185.07 2325.079 L 1186.197 2326.33 L 1187.073 2327.831 L 1187.698 2329.332 L 1188.074 2331.083 L 1188.199 2332.835 L 1188.074 2334.586 L 1187.573 2336.337 L 1186.822 2337.964 L 1185.696 2339.59 L 1184.32 2340.966 L 1182.568 2342.092 L 1180.44 2343.093 L 1137.643 2345.094 L 1134.639 2344.594 L 1132.011 2343.718 L 1129.884 2342.467 L 1128.257 2340.841 L 1127.006 2339.09 L 1126.63 2338.089 L 1126.255 2337.088 L 1126.005 2336.087 L 1125.88 2334.961 L 1125.88 2332.835 L 1126.255 2330.833 L 1127.006 2328.832 L 1128.007 2326.955 L 1129.383 2325.329 L 1131.01 2323.953 L 1133.012 2322.952 L 1134.014 2322.702 L 1135.265 2322.451 L 1137.643 2322.326 Z  M 1639.201 2306.814 L 1653.718 2305.063 L 1655.219 2305.813 L 1655.595 2306.189 L 1655.72 2306.564 L 1655.469 2307.565 L 1654.218 2308.566 L 1639.452 2309.691 L 1637.324 2309.691 L 1636.824 2309.441 L 1636.699 2309.066 L 1636.824 2308.691 L 1637.199 2308.19 L 1639.201 2306.814 Z  M 50.681 2331.959 L 47.303 2341.341 L 44.299 2351.85 L 46.176 2352.976 L 48.179 2353.226 L 49.18 2353.101 L 50.056 2352.725 L 51.057 2352.225 L 52.058 2351.349 L 52.058 2331.834 L 50.681 2331.959 Z  M 64.822 2366.987 L 60.943 2377.495 L 61.444 2378.496 L 62.319 2379.246 L 63.571 2379.872 L 64.947 2380.122 L 142.033 2380.247 L 219.244 2380.372 L 296.455 2380.497 L 373.666 2380.747 L 375.418 2380.497 L 376.044 2380.122 L 376.67 2379.622 L 377.421 2378.12 L 377.671 2377.119 L 377.796 2376.119 L 378.171 2366.862 L 378.046 2362.483 L 377.671 2358.48 L 377.045 2357.354 L 376.294 2356.604 L 375.293 2355.978 L 374.167 2355.728 L 279.311 2359.606 L 236.514 2361.107 L 196.719 2362.358 L 159.928 2363.359 L 126.141 2364.234 L 67.951 2364.985 L 66.825 2364.985 L 65.949 2365.36 L 65.323 2365.986 L 64.822 2366.987 Z  M 302.087 2345.72 L 313.474 2345.469 L 312.974 2332.459 L 311.597 2331.834 L 310.221 2331.458 L 308.719 2331.208 L 307.217 2331.083 L 305.591 2331.333 L 303.964 2331.584 L 302.212 2332.209 L 300.335 2332.835 L 302.087 2345.72 Z  M 385.555 2281.169 L 387.056 2343.844 L 387.682 2345.094 L 388.683 2345.469 L 389.809 2345.094 L 391.186 2343.844 L 391.061 2281.169 L 390.56 2280.293 L 390.06 2279.668 L 389.309 2279.292 L 388.558 2279.167 L 387.682 2279.292 L 386.931 2279.793 L 386.18 2280.418 L 385.555 2281.169 Z  M 399.695 2282.295 L 401.572 2334.336 L 402.323 2335.837 L 402.448 2335.337 L 402.824 2333.961 L 402.824 2282.045 L 401.948 2280.669 L 401.447 2280.418 L 401.072 2280.293 L 400.321 2280.794 L 399.695 2282.295 Z  M 395.816 2177.963 L 395.441 2180.59 L 395.315 2182.842 L 395.315 2184.843 L 395.691 2186.469 L 396.692 2187.345 L 397.818 2187.721 L 398.944 2187.345 L 400.071 2186.469 L 400.697 2184.718 L 400.822 2182.717 L 400.697 2180.465 L 400.071 2177.963 L 398.819 2176.837 L 397.693 2176.462 L 396.692 2176.837 L 396.317 2177.337 L 395.816 2177.963 Z  M 397.067 2197.854 L 399.445 2269.66 L 399.695 2271.286 L 399.946 2272.537 L 400.446 2273.163 L 400.822 2273.413 L 401.322 2273.163 L 401.698 2272.537 L 402.073 2271.286 L 402.323 2269.66 L 401.072 2197.854 L 400.697 2196.728 L 400.196 2195.977 L 399.57 2195.477 L 398.944 2195.352 L 398.319 2195.602 L 397.818 2196.102 L 397.443 2196.853 L 397.067 2197.854 Z  M 556.745 2378.621 L 558.622 2378.245 L 559.373 2377.995 L 559.999 2377.62 L 560.875 2376.494 L 561.501 2375.118 L 558.873 2346.095 L 557.997 2345.469 L 556.745 2344.844 L 552.991 2343.718 L 547.61 2342.718 L 544.231 2342.217 L 540.477 2341.842 L 534.596 2341.467 L 528.339 2341.467 L 521.706 2341.467 L 514.573 2341.842 L 453.38 2347.721 L 392.312 2353.601 L 390.06 2354.227 L 388.308 2354.977 L 387.181 2355.853 L 386.806 2356.353 L 386.681 2356.979 L 386.931 2376.744 L 387.056 2377.62 L 387.306 2378.371 L 388.057 2379.622 L 389.309 2380.497 L 390.936 2380.998 L 473.778 2379.747 L 556.745 2378.621 Z  M 32.411 2379.622 L 38.167 2381.623 L 41.046 2382.249 L 43.799 2382.624 L 44.424 2382.624 L 44.8 2382.499 L 44.675 2382.124 L 44.174 2381.748 L 39.794 2379.747 L 36.916 2378.621 L 33.412 2377.495 L 32.536 2377.62 L 32.161 2377.995 L 32.036 2378.621 L 32.411 2379.622 Z  M 61.569 2301.31 L 61.444 2349.973 L 62.069 2351.6 L 62.945 2352.725 L 63.446 2353.101 L 64.071 2353.226 L 65.573 2353.226 L 80.089 2353.976 L 83.343 2355.728 L 84.844 2356.353 L 86.096 2356.604 L 87.473 2356.729 L 88.599 2356.478 L 89.725 2356.103 L 90.726 2355.352 L 128.143 2354.977 L 128.643 2354.727 L 129.019 2354.352 L 129.519 2353.226 L 129.519 2351.6 L 129.269 2349.473 L 105.993 2288.175 L 105.242 2286.548 L 104.116 2285.172 L 102.865 2283.921 L 101.488 2282.795 L 99.736 2281.795 L 97.984 2280.919 L 93.604 2279.668 L 91.102 2279.292 L 88.474 2279.042 L 82.592 2278.917 L 75.835 2279.543 L 68.326 2280.544 L 61.569 2301.31 Z  M 1383.166 2327.581 L 1382.29 2328.331 L 1382.04 2329.332 L 1382.415 2330.458 L 1383.416 2331.834 L 1411.197 2329.332 L 1413.325 2328.456 L 1414.076 2327.831 L 1413.95 2327.581 L 1413.575 2327.33 L 1411.448 2326.58 L 1383.166 2327.581 Z  M 1207.846 2296.681 L 1206.97 2296.681 L 1206.219 2296.931 L 1205.593 2297.307 L 1204.968 2297.932 L 1204.217 2299.308 L 1203.967 2300.184 L 1203.841 2301.06 L 1203.841 2302.811 L 1204.592 2304.438 L 1205.093 2304.938 L 1205.844 2305.438 L 1206.845 2305.688 L 1207.846 2305.688 L 1306.456 2303.687 L 1308.583 2303.437 L 1310.085 2302.936 L 1310.961 2302.311 L 1311.211 2301.56 L 1310.835 2300.81 L 1309.96 2300.059 L 1308.458 2299.433 L 1306.456 2299.058 L 1207.846 2296.681 Z  M 707.664 2337.588 L 621.943 2340.841 L 619.19 2342.467 L 618.439 2343.093 L 618.189 2343.593 L 618.189 2344.094 L 618.815 2344.469 L 621.192 2345.094 L 684.638 2350.849 L 703.033 2352.851 L 708.79 2353.726 L 712.419 2354.352 L 712.794 2339.84 L 712.169 2338.965 L 711.042 2338.339 L 709.666 2337.839 L 707.664 2337.588 Z  M 721.304 2282.545 L 720.678 2283.421 L 720.177 2284.296 L 719.927 2285.297 L 719.802 2286.298 L 719.927 2288.8 L 720.803 2291.802 L 771.61 2292.428 L 770.859 2291.052 L 769.983 2289.676 L 767.73 2287.049 L 766.229 2285.798 L 764.602 2284.547 L 760.848 2282.045 L 721.304 2282.545 Z  M 1004.369 2288.3 L 1005.746 2288.425 L 1033.151 2289.551 L 1035.529 2287.299 L 1034.152 2264.156 L 1030.398 2261.904 L 1001.491 2262.404 L 998.988 2264.281 L 999.489 2277.666 L 1003.368 2287.174 L 1004.369 2288.3 Z  M 988.476 2276.916 L 994.108 2276.415 L 996.736 2273.913 L 996.235 2264.281 L 993.982 2262.78 L 982.72 2263.28 L 980.217 2265.657 L 980.718 2275.29 L 982.094 2276.666 L 988.476 2276.916 Z  M 982.72 2292.178 L 997.987 2292.553 L 998.863 2291.927 L 999.489 2291.052 L 999.989 2290.051 L 1000.365 2288.925 L 1000.114 2288.925 L 1000.114 2286.924 L 997.361 2279.292 L 994.608 2278.417 L 988.226 2278.417 L 982.219 2278.667 L 980.968 2279.668 L 981.218 2289.676 L 982.72 2292.178 Z  M 965.451 2279.793 L 964.7 2280.043 L 964.074 2280.544 L 963.073 2282.045 L 962.322 2283.921 L 961.822 2286.048 L 961.822 2288.05 L 962.322 2289.926 L 963.323 2291.177 L 964.074 2291.552 L 964.95 2291.802 L 974.211 2291.927 L 975.212 2291.677 L 975.962 2291.177 L 976.463 2290.427 L 976.713 2289.426 L 976.838 2280.544 L 974.711 2279.292 L 965.451 2279.793 Z  M 966.076 2263.781 L 966.452 2275.29 L 968.83 2276.791 L 975.086 2276.791 L 977.089 2274.664 L 976.713 2265.532 L 974.711 2263.781 L 966.076 2263.781 Z  M 1072.069 2259.027 L 1064.561 2259.777 L 1063.185 2259.902 L 1062.058 2260.403 L 1061.182 2261.404 L 1060.557 2262.905 L 1062.183 2287.674 L 1064.686 2290.802 L 1133.513 2292.052 L 1202.34 2293.304 L 1255.524 2294.304 L 1308.833 2295.43 L 1314.59 2297.557 L 1318.97 2299.809 L 1320.471 2300.81 L 1321.723 2301.935 L 1322.599 2302.936 L 1323.099 2304.062 L 1358.639 2323.577 L 1370.026 2323.202 L 1370.902 2322.201 L 1371.528 2321.201 L 1371.778 2319.95 L 1371.778 2318.448 L 1372.279 2318.448 L 1366.397 2243.514 L 1366.272 2242.764 L 1365.647 2242.013 L 1363.519 2240.637 L 1363.394 2240.387 L 1290.563 2245.016 L 1217.732 2249.644 L 1144.901 2254.273 L 1072.069 2259.027 Z  M 1692.636 2304.312 L 1691.134 2304.688 L 1689.883 2305.313 L 1688.882 2306.189 L 1688.131 2307.189 L 1687.63 2308.315 L 1687.38 2309.566 L 1687.38 2311.068 L 1687.63 2312.694 L 1689.007 2313.57 L 1690.509 2314.07 L 1692.135 2314.195 L 1693.762 2313.945 L 1695.389 2313.319 L 1697.141 2312.319 L 1699.018 2310.942 L 1700.77 2309.066 L 1702.647 2307.94 L 1703.773 2307.565 L 1704.9 2307.44 L 1706.026 2307.44 L 1707.277 2307.69 L 1708.529 2308.065 L 1709.905 2308.691 L 1709.905 2310.567 L 1709.405 2311.318 L 1708.779 2311.818 L 1708.153 2312.068 L 1707.653 2312.569 L 1707.277 2313.319 L 1707.152 2314.195 L 1707.277 2314.946 L 1707.653 2315.696 L 1708.403 2316.072 L 1709.405 2316.072 L 1710.656 2316.322 L 1711.907 2316.322 L 1713.284 2316.072 L 1714.535 2315.446 L 1715.036 2315.071 L 1715.411 2314.57 L 1715.662 2313.445 L 1715.286 2312.068 L 1714.16 2310.317 L 1713.159 2309.441 L 1713.034 2309.066 L 1713.034 2308.691 L 1713.785 2307.815 L 1715.286 2306.939 L 1717.539 2306.314 L 1718.54 2306.314 L 1719.291 2306.689 L 1721.668 2307.44 L 1723.796 2308.315 L 1725.548 2309.441 L 1727.049 2310.692 L 1727.425 2311.818 L 1727.925 2312.694 L 1728.676 2313.445 L 1729.802 2313.945 L 1732.681 2314.57 L 1734.558 2314.57 L 1736.56 2314.445 L 1739.313 2313.945 L 1741.19 2312.944 L 1741.816 2312.194 L 1742.316 2311.443 L 1742.567 2310.442 L 1742.692 2309.316 L 1739.939 2302.061 L 1739.313 2301.06 L 1738.938 2300.559 L 1738.437 2300.184 L 1737.311 2299.684 L 1735.934 2299.433 L 1692.636 2304.312 Z  M 1066.939 2318.949 L 1065.938 2319.95 L 1065.562 2321.075 L 1067.439 2350.724 L 1067.564 2351.725 L 1067.94 2352.725 L 1068.816 2353.476 L 1069.817 2354.227 L 1071.068 2354.101 L 1135.766 2351.099 L 1137.142 2351.349 L 1138.393 2351.975 L 1139.52 2352.725 L 1140.521 2353.601 L 1168.177 2351.6 L 1195.332 2349.473 L 1222.112 2347.096 L 1248.516 2344.469 L 1274.545 2341.717 L 1300.073 2338.714 L 1325.227 2335.462 L 1349.879 2332.084 L 1350.88 2331.834 L 1351.631 2331.834 L 1352.257 2332.084 L 1352.507 2332.584 L 1352.507 2333.085 L 1352.257 2333.71 L 1351.506 2334.336 L 1350.38 2334.836 L 1318.97 2339.59 L 1291.189 2343.093 L 1278.675 2344.594 L 1267.037 2345.72 L 1246.514 2347.096 L 1246.264 2349.848 L 1246.639 2350.348 L 1307.582 2346.595 L 1368.65 2342.843 L 1369.651 2341.592 L 1371.528 2340.09 L 1369.025 2337.588 L 1368.4 2336.588 L 1368.024 2335.712 L 1368.149 2335.086 L 1368.775 2334.586 L 1369.651 2334.086 L 1371.028 2333.71 L 1371.528 2332.96 L 1371.904 2332.334 L 1372.154 2331.584 L 1372.154 2330.958 L 1371.904 2330.208 L 1371.528 2329.582 L 1370.277 2328.456 L 1370.152 2327.956 L 1366.898 2327.581 L 1362.143 2327.581 L 1359.515 2327.205 L 1356.887 2326.455 L 1354.509 2325.079 L 1352.132 2323.327 L 1322.599 2306.689 L 1321.222 2308.19 L 1319.095 2309.691 L 1255.524 2312.694 L 1191.953 2315.821 L 1129.383 2317.323 L 1066.939 2318.949 Z  M 1061.182 2354.602 L 1063.059 2353.351 L 1063.685 2352.6 L 1064.186 2351.725 L 1061.683 2323.452 L 1061.307 2321.451 L 1060.682 2320.325 L 1059.681 2319.074 L 1048.418 2319.449 L 1047.542 2320.2 L 1046.791 2321.075 L 1046.541 2321.576 L 1046.416 2321.951 L 1046.291 2322.827 L 1048.543 2352.225 L 1048.668 2353.101 L 1049.044 2353.726 L 1049.544 2354.477 L 1050.295 2354.977 L 1059.305 2354.727 L 1061.182 2354.602 Z  M 931.538 2335.962 L 930.412 2336.337 L 929.536 2336.838 L 928.66 2337.588 L 927.909 2338.464 L 927.283 2339.34 L 926.783 2340.341 L 926.157 2342.592 L 926.032 2344.844 L 926.157 2345.97 L 926.407 2346.971 L 927.408 2348.722 L 928.284 2349.348 L 929.16 2349.848 L 972.959 2348.722 L 973.96 2348.347 L 974.836 2347.846 L 975.712 2346.971 L 976.338 2346.095 L 977.464 2343.844 L 977.839 2342.592 L 977.965 2341.341 L 977.965 2338.839 L 977.339 2336.588 L 976.713 2335.587 L 975.962 2334.836 L 975.086 2334.211 L 973.96 2333.835 L 931.538 2335.962 Z  M 977.214 2352.1 L 976.964 2352.225 L 936.418 2354.602 L 935.542 2356.228 L 935.542 2356.979 L 961.822 2356.854 L 963.198 2357.229 L 964.199 2357.729 L 964.825 2358.355 L 964.95 2359.105 L 964.825 2359.856 L 964.199 2360.607 L 963.323 2361.232 L 961.947 2361.857 L 872.222 2360.857 L 871.471 2360.732 L 870.97 2360.356 L 870.595 2359.856 L 870.595 2359.23 L 870.97 2358.23 L 871.471 2357.729 L 872.222 2357.479 L 928.66 2357.104 L 929.035 2356.103 L 925.656 2354.101 L 922.903 2351.85 L 921.777 2350.599 L 920.901 2349.473 L 919.399 2347.096 L 918.523 2344.594 L 918.023 2342.217 L 918.023 2339.84 L 918.398 2337.588 L 919.149 2335.337 L 920.15 2333.335 L 921.527 2331.584 L 923.028 2329.958 L 924.655 2328.581 L 926.532 2327.581 L 928.409 2326.955 L 930.286 2326.58 L 973.96 2326.83 L 974.961 2327.08 L 975.712 2325.704 L 975.837 2324.328 L 975.587 2322.952 L 974.961 2321.701 L 961.822 2322.076 L 868.092 2322.201 L 774.488 2322.326 L 774.613 2322.201 L 723.932 2322.827 L 722.93 2323.202 L 722.18 2323.828 L 721.929 2324.453 L 721.929 2325.204 L 721.679 2328.707 L 722.43 2329.707 L 723.556 2330.458 L 725.183 2330.833 L 727.06 2330.833 L 773.862 2330.583 L 775.614 2330.958 L 777.116 2331.333 L 779.744 2332.459 L 781.746 2334.211 L 782.497 2335.086 L 783.123 2336.212 L 787.628 2350.599 L 788.003 2354.602 L 788.378 2355.102 L 788.754 2355.478 L 790.005 2355.728 L 824.669 2356.228 L 825.294 2356.604 L 825.92 2357.104 L 826.296 2357.729 L 826.421 2358.23 L 826.296 2358.855 L 826.045 2359.23 L 825.42 2359.606 L 824.669 2359.731 L 787.753 2358.855 L 725.809 2362.858 L 724.682 2363.108 L 723.807 2363.734 L 723.181 2364.485 L 722.805 2365.485 L 722.805 2372.741 L 722.93 2373.367 L 723.306 2373.992 L 723.932 2374.618 L 724.933 2375.243 L 791.507 2372.991 L 855.829 2370.489 L 917.773 2367.612 L 977.464 2364.61 L 977.839 2364.234 L 978.09 2360.481 L 978.09 2357.229 L 977.714 2354.477 L 977.214 2352.1 Z  M 1044.539 2296.556 L 1045.79 2313.319 L 1046.041 2314.57 L 1046.416 2315.571 L 1047.042 2316.322 L 1047.792 2316.822 L 1057.804 2315.821 L 1058.93 2315.571 L 1059.681 2315.196 L 1059.931 2314.821 L 1060.056 2314.57 L 1060.056 2313.82 L 1058.805 2296.056 L 1058.304 2295.055 L 1057.553 2294.429 L 1056.552 2294.179 L 1055.301 2294.304 L 1045.79 2294.555 L 1045.29 2295.055 L 1044.914 2295.68 L 1044.539 2296.556 Z  M 1037.031 2355.352 L 1038.908 2354.477 L 1039.533 2353.851 L 1040.034 2353.226 L 1037.906 2323.452 L 1036.905 2321.701 L 1036.155 2320.825 L 1035.028 2319.824 L 983.471 2321.451 L 982.219 2323.077 L 981.469 2324.954 L 981.218 2326.83 L 981.594 2328.957 L 982.97 2331.584 L 984.096 2334.211 L 984.722 2336.713 L 984.972 2339.215 L 984.722 2341.467 L 984.222 2343.718 L 983.346 2345.72 L 981.969 2347.721 L 981.969 2351.224 L 982.094 2352.725 L 982.344 2354.227 L 982.845 2356.729 L 983.721 2358.855 L 984.222 2358.48 L 984.597 2357.979 L 985.223 2357.604 L 987.1 2356.979 L 989.603 2356.604 L 992.481 2356.353 L 998.237 2356.353 L 1002.367 2356.478 L 1004.87 2356.979 L 1006.121 2357.729 L 1006.371 2358.23 L 1006.246 2358.73 L 1005.37 2359.981 L 1004.745 2360.481 L 1004.244 2361.107 L 1004.619 2362.233 L 1005.245 2362.858 L 1006.121 2363.359 L 1007.122 2363.609 L 1009.5 2363.734 L 1012.128 2363.609 L 1014.756 2363.359 L 1017.008 2362.858 L 1018.885 2361.857 L 1020.137 2360.732 L 1019.761 2359.731 L 1018.885 2358.855 L 1018.26 2358.104 L 1017.884 2357.479 L 1018.009 2356.854 L 1018.51 2356.353 L 1019.886 2355.853 L 1021.889 2355.478 L 1023.766 2355.478 L 1025.643 2355.978 L 1037.031 2355.352 Z  M 1713.034 2235.008 L 1691.51 2297.057 L 1691.51 2298.558 L 1691.635 2299.183 L 1692.135 2299.684 L 1693.512 2300.309 L 1695.514 2300.559 L 1733.306 2295.555 L 1734.808 2294.805 L 1735.809 2293.804 L 1736.184 2292.678 L 1736.059 2291.302 L 1716.037 2234.007 L 1715.536 2233.382 L 1715.036 2232.881 L 1714.661 2232.631 L 1714.285 2232.631 L 1713.91 2232.881 L 1713.534 2233.382 L 1713.034 2235.008 Z  M 1703.523 2210.238 L 1690.509 2214.492 L 1684.252 2216.618 L 1678.12 2218.87 L 1666.231 2223.749 L 1654.969 2228.753 L 1649.588 2231.38 L 1644.332 2234.132 L 1634.196 2239.761 L 1624.685 2245.641 L 1615.8 2251.771 L 1611.546 2255.023 L 1607.541 2258.276 L 1599.782 2265.156 L 1596.153 2268.659 L 1592.65 2272.162 L 1589.271 2275.79 L 1586.142 2279.543 L 1583.139 2283.296 L 1580.136 2287.174 L 1574.88 2295.055 L 1570.124 2303.312 L 1567.872 2307.565 L 1565.87 2311.818 L 1565.369 2312.819 L 1565.369 2313.194 L 1565.494 2313.445 L 1566.245 2314.07 L 1567.622 2314.32 L 1621.682 2309.316 L 1623.809 2309.566 L 1624.31 2309.817 L 1624.685 2310.067 L 1624.685 2310.567 L 1624.56 2311.193 L 1623.184 2312.569 L 1622.558 2314.07 L 1622.433 2314.695 L 1622.683 2315.196 L 1623.809 2315.821 L 1625.686 2316.072 L 1672.739 2315.071 L 1673.99 2314.821 L 1674.991 2314.32 L 1675.867 2313.695 L 1676.743 2312.819 L 1677.369 2311.693 L 1677.87 2310.442 L 1678.495 2307.315 L 1673.74 2306.564 L 1671.988 2306.064 L 1671.613 2305.688 L 1671.362 2305.313 L 1671.487 2304.938 L 1671.863 2304.563 L 1673.49 2303.562 L 1681.499 2302.061 L 1710.03 2218.495 L 1710.03 2214.492 L 1709.655 2212.99 L 1708.904 2211.74 L 1708.028 2210.864 L 1706.777 2210.363 L 1705.275 2210.113 L 1703.523 2210.238 Z  M 1194.831 2296.556 L 1131.511 2295.18 L 1068.315 2293.929 L 1066.814 2293.929 L 1065.562 2294.429 L 1064.436 2295.18 L 1063.685 2296.181 L 1065.312 2313.445 L 1065.312 2314.57 L 1065.813 2315.321 L 1066.688 2315.946 L 1068.065 2316.322 L 1131.636 2314.07 L 1195.332 2311.818 L 1196.708 2311.818 L 1197.709 2311.443 L 1198.21 2310.817 L 1198.335 2309.942 L 1197.96 2299.809 L 1197.709 2298.558 L 1197.084 2297.682 L 1196.208 2296.931 L 1194.831 2296.556 Z  M 980.968 2299.058 L 980.968 2314.821 L 981.594 2316.197 L 982.845 2317.072 L 984.472 2317.698 L 986.724 2317.823 L 1031.775 2316.822 L 1033.652 2316.697 L 1035.153 2316.322 L 1036.28 2315.446 L 1037.031 2314.32 L 1035.779 2296.556 L 1035.654 2295.555 L 1035.153 2294.555 L 1034.277 2293.804 L 1033.026 2293.053 L 1005.996 2292.052 L 1005.245 2293.679 L 1004.745 2294.179 L 1004.244 2294.68 L 1002.867 2295.43 L 1001.241 2295.555 L 983.221 2295.806 L 982.094 2296.181 L 981.469 2296.931 L 981.218 2297.307 L 980.968 2297.807 L 980.968 2299.058 Z  M 953.437 2291.677 L 866.465 2289.676 L 779.619 2287.674 L 777.992 2288.175 L 777.116 2288.8 L 776.991 2289.551 L 777.366 2290.552 L 777.742 2292.428 L 777.742 2293.304 L 777.616 2294.054 L 777.241 2294.805 L 776.74 2295.305 L 775.239 2296.306 L 720.553 2296.931 L 720.428 2317.573 L 720.678 2318.323 L 721.304 2318.949 L 723.181 2320.075 L 785.876 2319.449 L 848.696 2318.824 L 911.391 2318.198 L 974.211 2317.698 L 975.462 2317.198 L 976.463 2316.322 L 977.214 2315.321 L 977.714 2314.07 L 977.214 2298.558 L 977.089 2297.557 L 976.713 2296.556 L 976.088 2295.806 L 975.086 2295.18 L 962.948 2294.68 L 961.321 2294.805 L 959.945 2294.805 L 958.818 2294.429 L 958.068 2293.929 L 957.567 2293.053 L 956.566 2292.428 L 955.189 2291.927 L 953.437 2291.677 Z  M 721.929 2339.965 L 721.929 2349.223 L 722.055 2350.223 L 722.305 2351.099 L 722.68 2351.725 L 723.306 2352.35 L 733.317 2353.101 L 734.568 2353.976 L 735.57 2354.852 L 736.32 2355.978 L 736.571 2357.104 L 737.947 2359.23 L 748.083 2358.355 L 749.836 2357.354 L 750.586 2356.478 L 751.462 2355.352 L 751.963 2354.602 L 752.839 2354.101 L 754.09 2353.851 L 755.717 2353.601 L 778.868 2354.352 L 780.62 2353.851 L 781.371 2353.601 L 781.871 2353.101 L 782.872 2352.1 L 783.373 2350.849 L 778.743 2337.713 L 777.742 2336.463 L 776.115 2335.337 L 725.308 2336.963 L 723.681 2337.213 L 722.68 2337.839 L 722.055 2338.714 L 721.929 2339.965 Z  M 616.061 2344.719 L 614.059 2346.345 L 612.057 2348.722 L 610.305 2351.474 L 609.554 2352.976 L 609.054 2354.477 L 608.553 2355.978 L 608.303 2357.354 L 608.303 2358.73 L 608.428 2359.981 L 608.803 2361.107 L 609.554 2362.108 L 610.43 2362.983 L 611.807 2363.484 L 707.288 2359.731 L 709.916 2359.105 L 711.668 2358.23 L 712.169 2357.729 L 712.419 2357.354 L 712.419 2356.228 L 626.573 2349.598 L 623.945 2349.598 L 621.693 2349.473 L 620.692 2349.348 L 619.816 2349.097 L 618.314 2348.597 L 617.188 2347.972 L 616.437 2347.096 L 616.061 2345.97 L 616.061 2344.719 Z  M 490.797 2279.543 L 490.797 2286.548 L 556.495 2286.548 L 622.193 2286.548 L 622.193 2282.045 L 622.193 2281.544 L 622.193 2279.543 L 556.745 2279.543 L 491.297 2279.543 L 490.797 2279.543 Z  M 1374.907 2239.761 L 1374.031 2240.887 L 1373.906 2241.388 L 1374.156 2241.763 L 1379.412 2319.074 L 1380.038 2319.199 L 1380.038 2320.45 L 1380.788 2321.576 L 1382.165 2322.451 L 1384.417 2323.327 L 1434.724 2322.451 L 1476.395 2321.326 L 1494.04 2320.7 L 1509.432 2319.95 L 1533.834 2318.448 L 1533.834 2318.198 L 1551.103 2317.323 L 1554.107 2315.696 L 1556.734 2308.44 L 1559.863 2301.435 L 1563.492 2294.68 L 1567.371 2288.05 L 1571.751 2281.669 L 1576.381 2275.54 L 1581.512 2269.535 L 1587.143 2263.655 L 1593.025 2258.151 L 1596.153 2255.399 L 1599.282 2252.646 L 1606.04 2247.393 L 1609.543 2244.89 L 1613.172 2242.389 L 1620.681 2237.635 L 1628.69 2233.006 L 1636.949 2228.503 L 1645.709 2224.249 L 1646.71 2223.749 L 1647.335 2222.623 L 1647.461 2221.497 L 1647.21 2220.496 L 1646.459 2219.621 L 1578.509 2224.625 L 1510.683 2229.628 L 1442.733 2234.633 L 1374.907 2239.761 Z  M 582.274 2323.077 L 575.516 2323.077 L 574.765 2323.327 L 574.015 2323.327 L 573.389 2323.077 L 572.638 2322.702 L 571.261 2321.201 L 569.885 2318.824 L 568.759 2318.573 L 567.633 2318.448 L 566.631 2318.698 L 565.505 2319.199 L 563.628 2320.825 L 561.876 2323.452 L 490.046 2323.452 L 488.669 2323.452 L 487.543 2323.702 L 486.792 2324.578 L 486.542 2325.079 L 486.417 2325.579 L 486.417 2326.83 L 486.918 2328.206 L 487.919 2329.707 L 488.669 2330.333 L 489.42 2331.083 L 506.189 2332.835 L 524.459 2334.586 L 526.211 2333.835 L 528.464 2333.085 L 534.471 2331.584 L 542.479 2330.083 L 552.741 2328.456 L 554.993 2327.956 L 556.996 2327.956 L 558.748 2328.456 L 560.249 2329.582 L 561.501 2331.208 L 562.502 2333.335 L 563.127 2336.087 L 563.503 2339.34 L 569.009 2341.091 L 569.76 2341.967 L 570.135 2342.592 L 570.135 2343.218 L 569.635 2343.718 L 568.759 2344.219 L 567.382 2344.469 L 565.755 2344.719 L 563.503 2344.969 L 565.88 2379.371 L 567.758 2379.371 L 639.963 2377.745 L 709.916 2375.743 L 711.418 2374.743 L 712.544 2373.742 L 713.42 2372.741 L 714.046 2371.49 L 713.42 2364.985 L 713.545 2364.485 L 713.545 2363.984 L 713.17 2363.484 L 712.669 2363.108 L 613.058 2367.362 L 610.555 2367.112 L 608.303 2366.736 L 606.426 2365.861 L 604.674 2364.61 L 603.172 2363.108 L 602.046 2361.232 L 601.045 2358.98 L 600.294 2356.478 L 605.55 2341.467 L 607.302 2339.465 L 609.179 2337.588 L 612.933 2334.836 L 614.935 2333.71 L 616.937 2332.96 L 618.94 2332.334 L 621.067 2331.959 L 707.914 2330.333 L 710.041 2329.707 L 711.292 2328.832 L 711.668 2328.206 L 711.793 2327.706 L 711.793 2326.455 L 711.167 2325.329 L 710.291 2324.453 L 709.04 2323.953 L 707.538 2323.953 L 644.844 2323.577 L 582.149 2323.327 L 582.274 2323.077 Z  M 629.201 2296.431 L 626.323 2298.308 L 624.946 2298.933 L 623.57 2299.308 L 622.193 2299.559 L 620.942 2299.559 L 619.565 2299.433 L 618.189 2299.058 L 604.799 2303.437 L 595.914 2306.939 L 592.41 2308.566 L 589.156 2310.442 L 585.903 2312.694 L 582.399 2315.321 L 582.023 2316.822 L 582.149 2318.073 L 582.774 2319.074 L 584.026 2319.699 L 647.847 2319.574 L 711.793 2319.574 L 711.918 2318.824 L 712.419 2296.931 L 712.419 2296.431 L 629.201 2296.431 Z  M 628.075 2282.045 L 628.075 2288.675 L 628.575 2289.676 L 629.451 2290.677 L 630.703 2291.802 L 632.204 2292.928 L 712.419 2292.928 L 712.169 2282.045 L 628.075 2282.045 Z  M 1423.711 2328.832 L 1424.838 2329.832 L 1425.213 2330.833 L 1424.963 2331.959 L 1423.962 2333.085 L 1386.42 2336.588 L 1385.419 2336.838 L 1384.543 2337.338 L 1383.917 2338.089 L 1383.667 2338.839 L 1383.792 2339.59 L 1384.292 2340.216 L 1385.293 2340.591 L 1386.67 2340.591 L 1465.132 2335.086 L 1543.595 2329.582 L 1545.597 2329.082 L 1547.224 2328.081 L 1548.225 2326.83 L 1548.6 2325.454 L 1548.475 2324.203 L 1548.225 2323.702 L 1547.724 2323.202 L 1546.223 2322.577 L 1543.845 2322.577 L 1465.258 2328.331 L 1464.006 2327.831 L 1463.005 2327.08 L 1462.505 2326.33 L 1462.254 2325.329 L 1460.878 2324.828 L 1459.251 2324.703 L 1455.747 2325.079 L 1454.496 2325.454 L 1453.87 2325.829 L 1453.369 2326.33 L 1452.744 2327.956 L 1452.493 2328.957 L 1452.243 2330.083 L 1432.471 2331.834 L 1431.72 2331.584 L 1431.47 2331.208 L 1431.345 2330.833 L 1431.22 2329.832 L 1431.47 2328.331 L 1431.595 2327.08 L 1431.595 2326.58 L 1431.345 2326.205 L 1430.469 2325.829 L 1429.217 2325.829 L 1426.715 2325.454 L 1425.463 2325.704 L 1424.212 2326.079 L 1423.086 2326.955 L 1422.71 2327.706 L 1422.71 2327.956 L 1422.835 2328.331 L 1423.211 2328.581 L 1423.711 2328.832 Z  M 1564.869 2321.951 L 1563.242 2321.951 L 1561.99 2322.577 L 1561.114 2323.452 L 1560.739 2324.578 L 1560.864 2325.704 L 1561.49 2326.58 L 1562.741 2327.205 L 1564.618 2327.205 L 1605.038 2323.953 L 1606.665 2323.077 L 1607.041 2322.702 L 1607.166 2322.326 L 1607.041 2322.076 L 1606.54 2321.826 L 1604.788 2321.576 L 1564.869 2321.951 Z  M 377.17 2279.418 L 370.288 2278.292 L 306.341 2278.292 L 242.395 2278.292 L 178.449 2278.292 L 114.503 2278.292 L 111.374 2281.169 L 113.502 2284.672 L 116.004 2289.926 L 118.882 2296.806 L 122.386 2305.313 L 130.896 2327.205 L 141.157 2355.603 L 212.987 2354.101 L 284.817 2352.6 L 285.693 2351.349 L 286.569 2350.348 L 288.446 2348.722 L 290.449 2347.721 L 292.576 2347.471 L 294.578 2346.22 L 295.329 2345.595 L 295.955 2344.969 L 297.081 2343.468 L 297.582 2341.717 L 297.707 2339.715 L 297.331 2337.588 L 296.581 2335.212 L 295.204 2332.71 L 293.702 2331.709 L 292.701 2330.833 L 291.95 2329.958 L 291.825 2329.082 L 291.95 2328.206 L 292.701 2327.33 L 293.702 2326.455 L 295.204 2325.579 L 300.835 2324.703 L 303.964 2324.328 L 307.217 2324.203 L 313.975 2324.328 L 317.354 2324.703 L 320.607 2325.204 L 321.733 2325.704 L 322.234 2326.33 L 322.484 2327.205 L 322.234 2328.081 L 321.733 2328.957 L 320.858 2329.832 L 319.731 2330.708 L 318.355 2331.333 L 318.98 2332.334 L 319.105 2332.96 L 319.231 2333.46 L 318.855 2334.711 L 318.104 2335.837 L 318.855 2343.218 L 320.482 2344.469 L 322.109 2345.344 L 324.862 2346.345 L 325.988 2346.846 L 326.864 2347.471 L 327.615 2348.472 L 327.99 2349.973 L 329.993 2351.349 L 349.264 2349.848 L 363.655 2348.472 L 372.915 2347.221 L 377.295 2346.22 L 377.17 2279.418 Z  M 104.491 2275.79 L 196.844 2275.915 L 289.197 2276.165 L 377.17 2275.915 L 377.17 2275.665 L 390.435 2274.789 L 391.561 2273.788 L 392.187 2272.662 L 392.437 2271.286 L 392.187 2269.91 L 391.186 2229.003 L 390.936 2212.74 L 391.061 2199.355 L 391.186 2193.725 L 391.436 2188.846 L 391.937 2181.09 L 392.312 2178.338 L 392.813 2176.211 L 393.313 2174.96 L 393.564 2174.46 L 393.814 2174.21 L 392.437 2169.456 L 404.075 2169.456 L 403.449 2170.707 L 403.324 2172.458 L 403.7 2174.71 L 404.576 2177.462 L 405.076 2186.469 L 405.452 2205.234 L 405.702 2233.882 L 405.827 2272.287 L 409.081 2275.29 L 469.899 2274.789 L 473.152 2273.163 L 475.28 2267.408 L 477.157 2267.658 L 478.283 2272.913 L 490.797 2273.538 L 548.736 2272.537 L 606.676 2271.662 L 664.615 2270.661 L 722.555 2269.785 L 781.371 2267.783 L 840.311 2265.782 L 899.252 2263.781 L 958.193 2261.904 L 957.442 2175.086 L 963.574 2175.836 L 965.951 2261.278 L 974.961 2261.278 L 977.089 2258.026 L 976.713 2242.389 L 978.966 2242.889 L 979.591 2259.652 L 981.343 2260.403 L 994.608 2260.653 L 996.36 2258.276 L 996.235 2237.26 L 997.862 2237.26 L 998.613 2256.65 L 1000.365 2259.402 L 1053.173 2257.901 L 1054.8 2256.9 L 1055.176 2245.641 L 1058.68 2246.392 L 1060.306 2255.274 L 1064.811 2256.65 L 1072.445 2256.9 L 1074.072 2257.025 L 1148.154 2252.271 L 1222.237 2247.518 L 1296.319 2242.764 L 1370.402 2238.01 L 1375.157 2237.385 L 1375.157 2237.635 L 1442.482 2232.756 L 1509.807 2227.877 L 1577.132 2222.998 L 1644.582 2218.119 L 1643.832 2217.744 L 1660.475 2216.493 L 1671.362 2211.615 L 1681.999 2207.486 L 1692.386 2204.108 L 1697.516 2202.732 L 1702.647 2201.606 L 1703.022 2201.481 L 1703.523 2199.855 L 1703.773 2198.354 L 1707.903 2197.228 L 1710.531 2199.104 L 1731.054 2193.475 L 1751.452 2188.972 L 1761.713 2187.22 L 1771.849 2185.594 L 1781.985 2184.343 L 1791.997 2183.342 L 1793.248 2183.968 L 1794.124 2184.593 L 1794.625 2185.344 L 1795 2186.219 L 1795 2187.22 L 1794.75 2188.221 L 1794.124 2189.347 L 1793.373 2190.473 L 1724.672 2202.857 L 1716.037 2225.375 L 1718.29 2229.754 L 1721.043 2236.009 L 1724.171 2244.14 L 1727.8 2254.273 L 1736.31 2280.043 L 1746.821 2313.57 L 1747.572 2313.945 L 1748.073 2314.445 L 1748.573 2315.196 L 1748.698 2315.946 L 1734.808 2333.335 L 1719.791 2353.226 L 1703.773 2375.493 L 1686.88 2400.263 L 1668.859 2427.409 L 1649.838 2457.057 L 1629.816 2489.083 L 1608.918 2523.485 L 1596.404 2543 L 1499.796 2543 L 1403.314 2543 L 1306.706 2543 L 1210.223 2543 L 1113.616 2543 L 1017.133 2543 L 920.526 2543 L 824.043 2543 L 727.435 2543 L 630.953 2543 L 534.345 2543 L 437.863 2543 L 341.255 2543 L 244.773 2543 L 148.29 2543 L 51.808 2543 L 55.061 2540.123 L 54.185 2537.621 L 52.684 2535.244 L 50.681 2533.117 L 48.179 2530.99 L 45.05 2528.989 L 41.421 2527.113 L 37.292 2525.361 L 32.536 2523.735 L 32.536 2523.485 L 31.16 2523.485 L 6.507 2512.976 L 4.38 2511.976 L 2.753 2510.725 L 1.502 2509.348 L 0.626 2507.722 L 0.125 2506.096 L 0 2504.219 L 0.25 2502.218 L 1.001 2500.091 L 13.891 2442.171 L 26.78 2384.375 L 26.029 2382.374 L 25.654 2380.622 L 25.403 2378.996 L 25.654 2377.495 L 26.029 2376.244 L 26.78 2375.118 L 27.28 2374.492 L 27.906 2374.117 L 29.283 2373.241 L 29.533 2373.241 L 32.286 2368.863 L 38.167 2352.1 L 52.934 2315.946 L 52.809 2282.67 L 52.308 2281.294 L 51.683 2280.418 L 50.932 2279.793 L 49.931 2279.793 L 37.667 2279.793 L 36.416 2278.792 L 35.54 2277.792 L 35.039 2276.791 L 34.789 2275.79 L 35.039 2274.789 L 35.54 2273.788 L 36.416 2272.788 L 37.667 2271.787 L 66.074 2271.787 L 68.952 2269.41 L 73.707 2269.91 L 75.835 2271.912 L 96.608 2271.912 L 98.985 2272.412 L 101.113 2273.288 L 102.865 2274.289 L 104.491 2275.79 Z  M 405.827 2279.418 L 405.827 2344.094 L 407.204 2344.719 L 408.831 2345.219 L 412.835 2345.094 L 480.16 2339.59 L 480.786 2334.711 L 461.89 2330.333 L 460.763 2329.958 L 459.762 2329.332 L 458.886 2328.707 L 458.386 2327.831 L 457.885 2326.955 L 457.76 2325.954 L 457.76 2324.828 L 457.885 2323.577 L 472.401 2280.293 L 469.398 2276.666 L 468.647 2276.54 L 408.33 2277.541 L 405.827 2279.418 Z  M 481.286 2329.832 L 486.167 2279.167 L 482.788 2276.165 L 479.034 2276.04 L 477.532 2276.29 L 476.281 2276.54 L 460.888 2322.577 L 460.763 2323.577 L 460.638 2324.578 L 460.763 2325.329 L 461.014 2326.205 L 462.015 2327.456 L 463.642 2328.331 L 481.286 2329.832 Z  M 40.796 2359.856 L 39.419 2362.358 L 38.167 2364.985 L 36.165 2370.114 L 36.04 2370.99 L 36.04 2371.74 L 36.29 2372.741 L 36.666 2373.617 L 37.292 2374.242 L 45.676 2376.869 L 51.933 2378.371 L 53.059 2378.245 L 54.06 2377.995 L 54.936 2377.37 L 55.812 2376.494 L 59.692 2365.485 L 58.941 2363.609 L 57.689 2362.108 L 51.307 2360.231 L 45.05 2358.855 L 43.674 2358.73 L 42.422 2358.98 L 41.546 2359.23 L 40.796 2359.856 Z  M 841.688 2357.229 L 841.062 2357.479 L 840.562 2357.854 L 840.311 2358.355 L 840.186 2358.855 L 840.311 2359.23 L 840.562 2359.731 L 840.937 2359.981 L 841.688 2359.981 L 858.206 2359.981 L 858.832 2359.856 L 859.333 2359.606 L 859.833 2358.855 L 859.458 2357.979 L 858.957 2357.604 L 858.206 2357.354 L 841.688 2357.229 Z " fill-rule="evenodd" fill="rgb(0,0,0)"/><path d=" M 104.992 2403.765 L 103.365 2403.265 L 101.738 2402.389 L 98.61 2401.013 L 97.233 2400.888 L 96.858 2401.389 L 97.108 2402.264 L 98.234 2403.14 L 99.11 2404.016 L 99.486 2404.891 L 99.611 2406.017 L 99.361 2407.143 L 99.736 2408.519 L 100.362 2409.395 L 100.988 2409.52 L 101.864 2409.27 L 106.243 2405.267 L 106.619 2404.641 L 107.119 2404.516 L 107.495 2404.641 L 107.995 2405.142 L 108.12 2405.642 L 107.995 2406.142 L 107.495 2406.518 L 106.619 2406.518 L 104.867 2409.145 L 104.491 2410.021 L 104.366 2410.771 L 104.491 2411.396 L 104.867 2411.897 L 106.243 2412.522 L 108.746 2413.398 L 111.624 2413.898 L 114.753 2414.149 L 117.881 2414.024 L 121.135 2413.398 L 124.514 2412.272 L 126.015 2411.521 L 127.642 2410.521 L 129.144 2409.52 L 130.646 2408.269 L 197.971 2408.644 L 269.175 2408.644 L 344.384 2408.394 L 423.472 2407.644 L 506.314 2406.518 L 592.911 2404.891 L 683.136 2402.64 L 729.563 2401.263 L 776.991 2399.762 L 825.169 2398.136 L 874.349 2396.26 L 924.405 2394.258 L 975.337 2392.006 L 1027.019 2389.629 L 1079.578 2387.002 L 1133.012 2384.25 L 1187.323 2381.248 L 1242.885 2377.87 L 1298.447 2374.492 L 1355.135 2370.865 L 1412.699 2366.862 L 1471.389 2362.483 L 1530.205 2358.23 L 1590.272 2353.601 L 1650.964 2348.597 L 1653.592 2348.597 L 1654.468 2348.972 L 1654.594 2349.223 L 1654.844 2349.598 L 1654.844 2351.349 L 1655.094 2352.725 L 1655.469 2353.726 L 1655.97 2354.352 L 1656.596 2354.727 L 1657.347 2354.727 L 1658.348 2354.227 L 1659.349 2353.601 L 1666.106 2349.973 L 1668.734 2348.722 L 1670.862 2347.846 L 1671.863 2347.346 L 1672.614 2346.846 L 1672.989 2346.22 L 1672.989 2345.595 L 1672.614 2344.969 L 1671.988 2344.219 L 1669.485 2342.467 L 1665.481 2341.091 L 1663.729 2340.591 L 1661.977 2340.09 L 1659.099 2339.59 L 1656.846 2339.59 L 1655.219 2339.84 L 1654.218 2340.466 L 1654.093 2340.966 L 1654.093 2341.467 L 1654.844 2342.718 L 1653.968 2343.468 L 1653.092 2344.219 L 1652.216 2344.844 L 1651.09 2345.344 L 1648.587 2346.095 L 1645.583 2346.345 L 1563.742 2353.226 L 1480.274 2359.606 L 1437.852 2362.733 L 1395.054 2365.611 L 1308.083 2371.24 L 1219.484 2376.369 L 1129.258 2381.123 L 1037.281 2385.501 L 943.677 2389.379 L 848.445 2392.882 L 800.141 2394.508 L 751.462 2396.01 L 702.282 2397.385 L 652.727 2398.636 L 602.546 2399.637 L 552.365 2400.763 L 501.309 2401.639 L 450.377 2402.64 L 398.444 2403.265 L 346.636 2404.016 L 293.953 2404.391 L 241.269 2404.891 L 187.709 2405.142 L 134.275 2405.392 L 132.773 2405.267 L 131.271 2404.891 L 130.02 2404.391 L 128.894 2403.765 L 127.642 2401.764 L 126.766 2401.013 L 125.765 2400.263 L 123.262 2399.387 L 120.259 2398.887 L 109.622 2399.887 L 107.745 2399.887 L 106.243 2400.513 L 105.367 2401.764 L 105.117 2402.64 L 104.992 2403.765 Z " fill-rule="evenodd" fill="rgb(255,255,255)"/><path d=" M 44.55 2523.985 L 46.802 2525.236 L 49.055 2526.737 L 51.057 2528.238 L 52.934 2529.99 L 56.438 2534.118 L 57.94 2536.37 L 59.441 2538.747 L 155.298 2538.747 L 251.155 2538.747 L 347.012 2538.747 L 442.868 2538.747 L 538.725 2538.747 L 634.582 2538.747 L 730.439 2538.747 L 826.296 2538.747 L 922.153 2538.747 L 1018.009 2538.747 L 1113.866 2538.747 L 1209.723 2538.747 L 1305.58 2538.747 L 1401.437 2538.747 L 1497.293 2538.747 L 1593.275 2538.747 L 1595.778 2536.495 L 1598.531 2533.367 L 1601.284 2529.364 L 1604.162 2524.36 L 1506.679 2524.235 L 1409.195 2524.235 L 1311.712 2524.235 L 1214.228 2524.235 L 1116.744 2524.11 L 1019.261 2524.11 L 921.777 2524.11 L 824.293 2524.11 L 726.81 2523.985 L 629.326 2523.985 L 531.843 2523.985 L 434.359 2523.985 L 336.875 2523.985 L 239.392 2523.985 L 141.908 2523.985 L 44.55 2523.985 Z " fill-rule="evenodd" fill="rgb(255,255,255)"/><path d=" M 261.792 2389.004 L 327.615 2388.378 L 393.438 2387.753 L 459.262 2387.127 L 525.21 2386.502 L 595.914 2384.875 L 666.743 2383.25 L 733.693 2381.248 L 800.642 2379.246 L 871.596 2376.119 L 942.675 2373.116 L 1021.513 2369.739 L 1100.351 2366.361 L 1161.294 2362.858 L 1222.362 2359.481 L 1298.322 2353.601 L 1374.406 2347.721 L 1323.6 2350.223 L 1260.655 2353.851 L 1197.835 2357.604 L 1135.015 2361.357 L 1072.195 2365.11 L 1004.87 2367.862 L 937.545 2370.74 L 870.22 2373.492 L 802.895 2376.369 L 729.062 2378.245 L 655.23 2380.122 L 581.398 2381.998 L 507.565 2384 L 449.125 2384.5 L 390.81 2385.001 L 332.496 2385.501 L 274.181 2386.001 L 204.853 2385.876 L 135.526 2385.876 L 125.139 2386.252 L 122.637 2386.502 L 121.761 2386.877 L 122.511 2387.252 L 125.139 2387.628 L 135.401 2388.629 L 198.596 2388.754 L 261.792 2389.004 Z " fill-rule="evenodd" fill="rgb(255,255,255)"/><path d=" M 1735.308 2317.948 L 1736.31 2317.948 L 1736.935 2318.073 L 1737.436 2318.573 L 1737.561 2319.074 L 1737.561 2319.699 L 1737.186 2320.2 L 1736.56 2320.7 L 1735.684 2320.95 L 1687.505 2325.579 L 1640.703 2329.832 L 1595.277 2333.835 L 1551.228 2337.463 L 1508.681 2340.716 L 1467.385 2343.593 L 1427.465 2346.22 L 1388.922 2348.472 L 1387.671 2348.347 L 1386.795 2348.097 L 1386.42 2347.596 L 1386.295 2347.096 L 1386.67 2346.47 L 1387.296 2345.97 L 1388.297 2345.595 L 1389.798 2345.344 L 1431.845 2342.843 L 1474.142 2339.965 L 1516.94 2336.963 L 1559.988 2333.71 L 1603.286 2330.083 L 1646.96 2326.33 L 1691.009 2322.326 L 1735.308 2317.948 Z " fill-rule="evenodd" fill="rgb(255,255,255)"/><path d=" M 1702.522 2210.989 L 1707.778 2209.112 L 1684.377 2140.934 L 1660.976 2072.755 L 1637.575 2004.577 L 1614.173 1936.398 L 1590.772 1868.219 L 1567.371 1800.041 L 1543.97 1731.862 L 1520.569 1663.683 L 1497.168 1595.505 L 1473.767 1527.326 L 1450.366 1459.148 L 1426.965 1390.969 L 1403.564 1322.79 L 1380.163 1254.612 L 1356.762 1186.433 L 1333.361 1118.255 L 1309.96 1050.076 L 1286.558 981.897 L 1263.157 913.719 L 1239.756 845.54 L 1216.355 777.361 L 1192.954 709.183 L 1169.553 641.004 L 1146.152 572.826 L 1122.751 504.647 L 1099.35 436.468 L 1075.949 368.29 L 1052.548 300.111 L 1029.147 231.932 L 1005.746 163.754 L 982.344 95.575 L 959.069 27.522 L 953.813 29.398 L 977.089 97.452 L 1000.49 165.63 L 1023.891 233.809 L 1047.292 301.987 L 1070.693 370.166 L 1094.094 438.345 L 1117.495 506.523 L 1140.896 574.702 L 1164.297 642.881 L 1187.698 711.059 L 1211.099 779.238 L 1234.5 847.417 L 1257.902 915.595 L 1281.303 983.774 L 1304.704 1051.952 L 1328.105 1120.131 L 1351.506 1188.31 L 1374.907 1256.488 L 1398.308 1324.667 L 1421.709 1392.845 L 1445.11 1461.024 L 1468.511 1529.203 L 1491.912 1597.381 L 1515.313 1665.56 L 1538.714 1733.739 L 1562.115 1801.917 L 1585.517 1870.096 L 1608.918 1938.274 L 1632.319 2006.453 L 1655.72 2074.632 L 1679.121 2142.81 L 1702.522 2210.989 Z " fill="rgb(0,0,0)"/><path d=" M 64.822 2276.916 L 70.078 2278.917 L 96.357 2208.112 L 122.762 2137.306 L 149.166 2066.5 L 175.571 1995.695 L 201.975 1924.889 L 228.38 1854.083 L 254.784 1783.277 L 281.188 1712.472 L 307.593 1641.666 L 333.997 1570.86 L 360.402 1500.055 L 386.806 1429.249 L 413.21 1358.443 L 439.615 1287.638 L 466.019 1216.832 L 492.424 1146.026 L 518.828 1075.221 L 545.232 1004.415 L 571.637 933.609 L 598.041 862.804 L 624.446 791.998 L 650.85 721.192 L 677.255 650.386 L 703.659 579.581 L 730.063 508.775 L 756.468 437.97 L 782.872 367.164 L 809.277 296.358 L 835.681 225.552 L 862.086 154.747 L 888.49 83.941 L 914.894 13.135 L 909.638 11.134 L 883.234 81.939 L 856.83 152.745 L 830.425 223.551 L 804.021 294.357 L 777.616 365.162 L 751.212 435.968 L 724.808 506.774 L 698.403 577.579 L 671.999 648.385 L 645.594 719.191 L 619.19 789.996 L 592.786 860.802 L 566.381 931.608 L 539.977 1002.413 L 513.572 1073.219 L 487.168 1144.025 L 460.763 1214.83 L 434.359 1285.636 L 407.954 1356.442 L 381.55 1427.248 L 355.146 1498.053 L 328.741 1568.859 L 302.337 1639.665 L 275.932 1710.47 L 249.528 1781.276 L 223.124 1852.082 L 196.719 1922.887 L 170.315 1993.693 L 143.91 2064.499 L 117.506 2135.304 L 91.102 2206.11 L 64.822 2276.916 Z " fill="rgb(0,0,0)"/><path d=" M 995.359 2261.404 L 986.724 1848.954 L 978.59 1473.784 L 970.957 1135.893 L 963.824 835.032 L 957.317 571.449 L 951.185 344.896 L 948.432 245.568 L 945.804 155.622 L 943.176 74.934 L 940.798 3.503 L 946.304 3.253 L 948.682 74.684 L 951.31 155.372 L 953.938 245.318 L 956.691 344.646 L 962.823 571.199 L 969.33 834.781 L 976.463 1135.643 L 984.096 1473.784 L 992.231 1848.954 L 1000.865 2261.404 L 995.359 2261.404 Z " fill="rgb(0,0,0)"/><path d=" M 943.677 6.13 L 943.301 0.626 L 921.276 1.501 L 921.652 7.005 L 943.677 6.13 Z " fill="rgb(0,0,0)"/><path d=" M 946.304 3.253 L 946.179 0.5 L 943.301 0.626 L 943.677 6.13 L 940.798 3.503 L 946.304 3.253 Z " fill="rgb(0,0,0)"/><path d=" M 924.28 4.253 L 918.649 4.378 L 920.651 100.329 L 922.653 196.279 L 928.284 196.154 L 926.282 100.204 L 924.28 4.253 Z " fill="rgb(0,0,0)"/><path d=" M 921.276 1.501 L 918.649 1.626 L 918.649 4.378 L 924.28 4.253 L 921.652 7.005 L 921.276 1.501 Z " fill="rgb(0,0,0)"/><path d=" M 928.284 196.154 L 922.653 196.279 L 923.779 275.467 L 925.031 354.654 L 926.157 433.841 L 927.408 513.154 L 933.04 513.029 L 931.788 433.716 L 930.662 354.529 L 929.411 275.341 L 928.284 196.154 Z " fill="rgb(0,0,0)"/><line x1="928.284" y1="196.154" x2="922.653" y2="196.279"/><path d=" M 933.04 513.029 L 927.408 513.154 L 928.66 586.836 L 929.911 660.519 L 931.162 734.202 L 932.539 807.885 L 938.17 807.76 L 936.794 734.077 L 935.542 660.394 L 934.291 586.711 L 933.04 513.029 Z " fill="rgb(0,0,0)"/><line x1="927.408" y1="513.154" x2="933.04" y2="513.029"/><path d=" M 938.17 807.76 L 932.539 807.885 L 933.665 871.435 L 934.792 935.11 L 935.918 998.66 L 937.169 1062.335 L 942.8 1062.21 L 941.549 998.535 L 940.423 934.985 L 939.297 871.31 L 938.17 807.76 Z " fill="rgb(0,0,0)"/><line x1="932.539" y1="807.885" x2="938.17" y2="807.76"/><path d=" M 942.8 1062.21 L 937.169 1062.335 L 938.17 1126.386 L 939.171 1190.561 L 940.172 1254.737 L 941.299 1318.912 L 946.93 1318.787 L 945.804 1254.612 L 944.803 1190.436 L 943.802 1126.261 L 942.8 1062.21 Z " fill="rgb(0,0,0)"/><line x1="942.8" y1="1062.21" x2="937.169" y2="1062.335"/><path d=" M 946.93 1318.787 L 941.299 1318.912 L 942.3 1376.958 L 943.301 1435.004 L 944.302 1493.049 L 945.428 1551.22 L 946.43 1609.266 L 947.431 1667.311 L 948.432 1725.357 L 949.558 1783.528 L 955.189 1783.403 L 954.063 1725.232 L 953.062 1667.186 L 952.061 1609.141 L 951.06 1551.095 L 949.933 1492.924 L 948.932 1434.879 L 947.931 1376.833 L 946.93 1318.787 Z " fill="rgb(0,0,0)"/><line x1="941.299" y1="1318.912" x2="946.93" y2="1318.787"/><path d=" M 955.189 1783.403 L 949.558 1783.528 L 950.809 1843.45 L 952.061 1903.497 L 953.312 1963.544 L 954.689 2023.592 L 955.94 2083.514 L 957.192 2143.561 L 958.443 2203.608 L 959.819 2263.655 L 965.451 2263.53 L 964.074 2203.483 L 962.823 2143.436 L 961.571 2083.388 L 960.32 2023.466 L 958.943 1963.419 L 957.692 1903.372 L 956.441 1843.325 L 955.189 1783.403 Z " fill="rgb(0,0,0)"/><line x1="949.558" y1="1783.528" x2="955.189" y2="1783.403"/><path d=" M 962.573 2260.778 L 962.823 2266.407 L 998.237 2264.281 L 997.987 2258.651 L 962.573 2260.778 Z " fill="rgb(0,0,0)"/><path d=" M 959.819 2263.655 L 959.819 2266.533 L 962.823 2266.407 L 962.573 2260.778 L 965.451 2263.53 L 959.819 2263.655 Z " fill="rgb(0,0,0)"/><path d=" M 998.237 2264.281 L 1000.865 2264.156 L 1000.865 2261.404 L 995.359 2261.404 L 997.987 2258.651 L 998.237 2264.281 Z " fill="rgb(0,0,0)"/><path d=" M 976.213 2267.283 L 981.719 2267.033 L 979.967 2206.235 L 978.215 2145.437 L 972.709 2145.688 L 974.461 2206.485 L 976.213 2267.283 Z " fill="rgb(0,0,0)"/><path d=" M 972.709 2145.563 L 978.215 2145.563 L 977.089 2089.643 L 975.962 2033.85 L 974.836 1978.056 L 973.835 1922.262 L 972.709 1866.468 L 971.583 1810.674 L 970.456 1754.88 L 969.455 1699.086 L 963.949 1699.086 L 964.95 1754.88 L 966.076 1810.674 L 967.203 1866.468 L 968.329 1922.262 L 969.33 1978.056 L 970.456 2033.85 L 971.583 2089.643 L 972.709 2145.563 Z " fill="rgb(0,0,0)"/><path d=" M 972.709 2145.688 L 972.709 2145.563 L 978.215 2145.563 L 978.215 2145.437 L 972.709 2145.688 Z " fill="rgb(0,0,0)"/><path d=" M 963.949 1699.086 L 969.455 1699.086 L 968.204 1638.789 L 967.078 1578.616 L 965.951 1518.444 L 964.825 1458.272 L 963.699 1398.1 L 962.573 1337.927 L 961.446 1277.755 L 960.32 1217.583 L 954.814 1217.583 L 955.94 1277.755 L 957.066 1337.927 L 958.193 1398.1 L 959.319 1458.272 L 960.445 1518.444 L 961.571 1578.616 L 962.698 1638.789 L 963.949 1699.086 Z " fill="rgb(0,0,0)"/><line x1="963.949" y1="1699.086" x2="969.455" y2="1699.086"/><path d=" M 954.814 1217.583 L 960.32 1217.583 L 959.069 1153.157 L 957.942 1088.731 L 956.691 1024.306 L 955.565 959.88 L 954.313 895.454 L 953.187 831.029 L 951.936 766.603 L 950.809 702.302 L 945.303 702.302 L 946.43 766.603 L 947.681 831.029 L 948.807 895.454 L 950.059 959.88 L 951.185 1024.306 L 952.436 1088.731 L 953.563 1153.157 L 954.814 1217.583 Z " fill="rgb(0,0,0)"/><line x1="954.814" y1="1217.583" x2="960.32" y2="1217.583"/><path d=" M 945.303 702.302 L 950.809 702.302 L 949.433 638.878 L 948.182 575.453 L 946.93 512.028 L 945.679 448.603 L 944.427 385.178 L 943.176 321.753 L 941.924 258.328 L 940.673 195.028 L 935.167 195.028 L 936.418 258.328 L 937.67 321.753 L 938.921 385.178 L 940.172 448.603 L 941.424 512.028 L 942.675 575.453 L 943.927 638.878 L 945.303 702.302 Z " fill="rgb(0,0,0)"/><line x1="950.809" y1="702.302" x2="945.303" y2="702.302"/><path d=" M 935.042 195.028 L 940.673 195.028 L 939.547 114.715 L 938.546 34.527 L 932.914 34.527 L 933.916 114.715 L 935.042 195.028 Z " fill="rgb(0,0,0)"/><path d=" M 935.167 195.028 L 935.042 195.028 L 940.673 195.028 L 935.167 195.028 Z " fill="rgb(0,0,0)"/><path d=" M 351.141 2148.064 L 355.396 2151.817 L 358.274 2148.189 L 354.02 2144.437 L 351.141 2148.064 Z " fill="rgb(0,0,0)"/><path d=" M 356.147 2143.561 L 356.022 2149.19 L 412.835 2150.691 L 412.96 2145.062 L 356.147 2143.561 Z " fill="rgb(0,0,0)"/><path d=" M 354.02 2144.437 L 354.77 2143.561 L 356.147 2143.561 L 356.022 2149.19 L 358.274 2148.189 L 354.02 2144.437 Z " fill="rgb(0,0,0)"/><path d=" M 412.96 2145.062 L 412.96 2150.691 L 509.943 2150.566 L 606.926 2150.441 L 703.909 2150.316 L 801.018 2150.316 L 801.018 2144.687 L 703.909 2144.687 L 606.926 2144.812 L 509.943 2144.937 L 412.96 2145.062 Z " fill="rgb(0,0,0)"/><path d=" M 412.835 2150.691 L 412.96 2150.691 L 412.96 2145.062 L 412.835 2150.691 Z " fill="rgb(0,0,0)"/><path d=" M 801.018 2144.687 L 801.018 2150.316 L 870.47 2150.441 L 940.047 2150.691 L 940.047 2145.062 L 870.47 2144.812 L 801.018 2144.687 Z " fill="rgb(0,0,0)"/><line x1="801.018" y1="2144.687" x2="801.018" y2="2150.316"/><path d=" M 940.047 2145.062 L 940.172 2150.691 L 955.064 2150.316 L 954.939 2144.687 L 940.047 2145.062 Z " fill="rgb(0,0,0)"/><path d=" M 940.047 2150.691 L 940.172 2150.691 L 940.047 2145.062 L 940.047 2150.691 Z " fill="rgb(0,0,0)"/><path d=" M 953.437 2145.062 L 956.441 2149.816 L 961.321 2146.813 L 958.318 2142.06 L 953.437 2145.062 Z " fill="rgb(0,0,0)"/><path d=" M 955.064 2150.316 L 955.69 2150.316 L 956.441 2149.816 L 953.437 2145.062 L 954.939 2144.687 L 955.064 2150.316 Z " fill="rgb(0,0,0)"/><path d=" M 962.573 2144.437 L 956.941 2144.562 L 957.317 2173.459 L 962.948 2173.334 L 962.573 2144.437 Z " fill="rgb(0,0,0)"/><path d=" M 958.318 2142.06 L 962.447 2139.433 L 962.573 2144.437 L 956.941 2144.562 L 961.321 2146.813 L 958.318 2142.06 Z " fill="rgb(0,0,0)"/><path d=" M 958.568 2175.711 L 961.696 2171.083 L 949.558 2163.076 L 946.43 2167.705 L 958.568 2175.711 Z " fill="rgb(0,0,0)"/><path d=" M 962.948 2173.334 L 963.073 2178.713 L 958.568 2175.711 L 961.696 2171.083 L 957.317 2173.459 L 962.948 2173.334 Z " fill="rgb(0,0,0)"/><path d=" M 948.557 2168.08 L 947.431 2162.576 L 936.919 2164.702 L 938.045 2170.207 L 948.557 2168.08 Z " fill="rgb(0,0,0)"/><path d=" M 949.558 2163.076 L 948.432 2162.326 L 947.431 2162.576 L 948.557 2168.08 L 946.43 2167.705 L 949.558 2163.076 Z " fill="rgb(0,0,0)"/><path d=" M 937.545 2170.332 L 937.545 2164.702 L 863.838 2164.577 L 790.255 2164.452 L 716.548 2164.327 L 642.966 2164.327 L 642.966 2169.957 L 716.548 2169.957 L 790.255 2170.082 L 863.838 2170.207 L 937.545 2170.332 Z " fill="rgb(0,0,0)"/><path d=" M 938.045 2170.207 L 937.419 2170.332 L 937.545 2170.332 L 937.545 2164.702 L 936.919 2164.702 L 938.045 2170.207 Z " fill="rgb(0,0,0)"/><path d=" M 642.966 2169.957 L 642.966 2164.327 L 585.903 2164.327 L 528.839 2164.452 L 471.776 2164.577 L 414.837 2164.702 L 414.837 2170.332 L 471.776 2170.207 L 528.839 2170.082 L 585.903 2169.957 L 642.966 2169.957 Z " fill="rgb(0,0,0)"/><line x1="642.966" y1="2164.327" x2="642.966" y2="2169.957"/><path d=" M 414.837 2170.332 L 414.837 2164.702 L 360.527 2164.327 L 360.527 2169.957 L 414.837 2170.332 Z " fill="rgb(0,0,0)"/><line x1="414.837" y1="2170.332" x2="414.837" y2="2164.702"/><path d=" M 356.522 2164.327 L 360.527 2164.327 L 360.527 2169.957 L 356.522 2169.957 L 356.522 2164.327 Z " fill="rgb(0,0,0)"/><line x1="360.527" y1="2164.327" x2="360.527" y2="2169.957"/><path d=" M 354.395 2169.081 L 358.525 2165.203 L 356.022 2162.326 L 351.892 2166.204 L 354.395 2169.081 Z " fill="rgb(0,0,0)"/><path d=" M 356.522 2169.957 L 355.146 2169.957 L 354.395 2169.081 L 358.525 2165.203 L 356.522 2164.327 L 356.522 2169.957 Z " fill="rgb(0,0,0)"/><path d=" M 351.266 2164.452 L 356.772 2164.077 L 356.022 2149.816 L 350.516 2150.191 L 351.266 2164.452 Z " fill="rgb(0,0,0)"/><path d=" M 351.892 2166.204 L 351.266 2165.578 L 351.266 2164.452 L 356.772 2164.077 L 356.022 2162.326 L 351.892 2166.204 Z " fill="rgb(0,0,0)"/><path d=" M 350.516 2150.191 L 350.39 2148.94 L 351.141 2148.064 L 355.396 2151.817 L 356.022 2149.816 L 350.516 2150.191 Z " fill="rgb(0,0,0)"/><line x1="374.793" y1="2146.688" x2="374.417" y2="2167.079" vector-effect="non-scaling-stroke" stroke-width="1" stroke="rgb(255,51,153)" stroke-linejoin="round" stroke-linecap="round" stroke-miterlimit="9"/><path d=" M 959.194 1132.891 L 953.563 1133.391 L 960.07 1204.072 L 966.577 1274.753 L 973.084 1345.433 L 979.591 1416.114 L 986.099 1486.794 L 992.606 1557.475 L 999.113 1628.156 L 1005.62 1698.836 L 1012.128 1769.517 L 1018.635 1840.197 L 1025.142 1910.878 L 1031.65 1981.558 L 1038.157 2052.239 L 1044.664 2122.92 L 1051.171 2193.6 L 1057.678 2264.281 L 1063.31 2263.781 L 1056.802 2193.1 L 1050.295 2122.419 L 1043.788 2051.739 L 1037.281 1981.058 L 1030.774 1910.377 L 1024.266 1839.697 L 1017.759 1769.016 L 1011.252 1698.336 L 1004.745 1627.655 L 998.237 1556.974 L 991.73 1486.294 L 985.223 1415.613 L 978.716 1344.933 L 972.208 1274.252 L 965.701 1203.572 L 959.194 1132.891 Z " fill="rgb(0,0,0)"/><path d=" M 442.994 1733.238 L 442.368 1734.489 L 469.398 1747.499 L 470.024 1746.248 L 442.994 1733.238 Z " fill="rgb(0,0,0)"/><path d=" M 469.773 1746.248 L 469.773 1747.625 L 547.986 1745.748 L 547.986 1744.372 L 469.773 1746.248 Z " fill="rgb(0,0,0)"/><path d=" M 469.398 1747.499 L 469.648 1747.625 L 469.773 1747.625 L 469.773 1746.248 L 470.024 1746.248 L 469.398 1747.499 Z " fill="rgb(0,0,0)"/><path d=" M 547.36 1744.997 L 548.736 1744.997 L 548.736 1750.126 L 547.36 1750.126 L 547.36 1744.997 Z " fill="rgb(0,0,0)"/><path d=" M 547.986 1744.372 L 548.736 1744.372 L 548.736 1744.997 L 547.36 1744.997 L 547.986 1745.748 L 547.986 1744.372 Z " fill="rgb(0,0,0)"/><path d=" M 547.986 1750.752 L 547.986 1749.501 L 493.425 1751.502 L 438.864 1753.629 L 438.864 1754.88 L 493.425 1752.754 L 547.986 1750.752 Z " fill="rgb(0,0,0)"/><path d=" M 548.736 1750.126 L 548.736 1750.752 L 547.986 1750.752 L 547.986 1749.501 L 547.36 1750.126 L 548.736 1750.126 Z " fill="rgb(0,0,0)"/><path d=" M 522.332 1328.045 L 522.082 1329.421 L 577.769 1343.807 L 633.581 1358.318 L 633.831 1356.942 L 578.019 1342.431 L 522.332 1328.045 Z " fill="rgb(0,0,0)"/><path d=" M 633.08 1357.318 L 634.332 1357.818 L 636.709 1351.188 L 635.458 1350.687 L 633.08 1357.318 Z " fill="rgb(0,0,0)"/><path d=" M 633.581 1358.318 L 634.081 1358.443 L 634.332 1357.818 L 633.08 1357.318 L 633.831 1356.942 L 633.581 1358.318 Z " fill="rgb(0,0,0)"/><path d=" M 635.833 1351.563 L 636.209 1350.312 L 545.733 1326.919 L 545.358 1328.17 L 635.833 1351.563 Z " fill="rgb(0,0,0)"/><path d=" M 636.709 1351.188 L 636.96 1350.562 L 636.209 1350.312 L 635.833 1351.563 L 635.458 1350.687 L 636.709 1351.188 Z " fill="rgb(0,0,0)"/><path d=" M 545.107 1328.045 L 545.983 1327.044 L 524.96 1309.78 L 524.084 1310.781 L 545.107 1328.045 Z " fill="rgb(0,0,0)"/><path d=" M 545.358 1328.17 L 545.232 1328.17 L 545.107 1328.045 L 545.983 1327.044 L 545.733 1326.919 L 545.358 1328.17 Z " fill="rgb(0,0,0)"/><path d=" M 627.699 916.846 L 627.449 918.222 L 685.263 932.609 L 743.078 946.995 L 743.328 945.619 L 685.514 931.232 L 627.699 916.846 Z " fill="rgb(0,0,0)"/><path d=" M 742.577 946.119 L 743.829 946.494 L 745.331 940.24 L 744.079 939.864 L 742.577 946.119 Z " fill="rgb(0,0,0)"/><path d=" M 743.078 946.995 L 743.704 947.12 L 743.829 946.494 L 742.577 946.119 L 743.328 945.619 L 743.078 946.995 Z " fill="rgb(0,0,0)"/><path d=" M 744.455 940.615 L 744.83 939.364 L 654.604 915.345 L 654.229 916.596 L 744.455 940.615 Z " fill="rgb(0,0,0)"/><path d=" M 745.331 940.24 L 745.456 939.489 L 744.83 939.364 L 744.455 940.615 L 744.079 939.864 L 745.331 940.24 Z " fill="rgb(0,0,0)"/><path d=" M 653.979 916.471 L 654.98 915.47 L 635.458 898.832 L 634.457 899.833 L 653.979 916.471 Z " fill="rgb(0,0,0)"/><path d=" M 654.229 916.596 L 654.104 916.596 L 653.979 916.471 L 654.98 915.47 L 654.604 915.345 L 654.229 916.596 Z " fill="rgb(0,0,0)"/><path d=" M 758.22 515.03 L 757.969 516.406 L 810.028 529.667 L 862.086 543.052 L 862.336 541.676 L 810.278 528.291 L 758.22 515.03 Z " fill="rgb(0,0,0)"/><path d=" M 861.585 542.051 L 862.836 542.552 L 865.464 535.171 L 864.213 534.67 L 861.585 542.051 Z " fill="rgb(0,0,0)"/><path d=" M 862.086 543.052 L 862.586 543.177 L 862.836 542.552 L 861.585 542.051 L 862.336 541.676 L 862.086 543.052 Z " fill="rgb(0,0,0)"/><path d=" M 864.588 535.546 L 864.964 534.295 L 780.995 513.904 L 780.62 515.155 L 864.588 535.546 Z " fill="rgb(0,0,0)"/><path d=" M 865.464 535.171 L 865.715 534.42 L 864.964 534.295 L 864.588 535.546 L 864.213 534.67 L 865.464 535.171 Z " fill="rgb(0,0,0)"/><path d=" M 780.37 515.03 L 781.245 514.029 L 763.476 496.14 L 762.6 497.141 L 780.37 515.03 Z " fill="rgb(0,0,0)"/><path d=" M 780.62 515.155 L 780.495 515.155 L 780.37 515.03 L 781.245 514.029 L 780.995 513.904 L 780.62 515.155 Z " fill="rgb(0,0,0)"/><path d=" M 963.448 43.159 L 953.563 99.203 L 948.056 98.202 L 957.942 42.158 L 963.448 43.159 Z " fill="rgb(0,0,0)"/><path d=" M 951.185 101.455 L 950.309 95.951 L 923.904 99.828 L 924.78 105.333 L 951.185 101.455 Z " fill="rgb(0,0,0)"/><path d=" M 953.563 99.203 L 953.187 101.205 L 951.185 101.455 L 950.309 95.951 L 948.056 98.202 L 953.563 99.203 Z " fill="rgb(0,0,0)"/><path d=" M 915.52 1.751 L 914.269 2.002 L 913.268 2.377 L 912.392 3.002 L 912.016 3.253 L 911.641 3.628 L 911.265 4.003 L 911.015 4.503 L 910.765 4.879 L 910.64 5.379 L 910.515 6.005 L 910.389 6.505 L 910.264 7.131 L 910.264 7.756 L 911.391 13.385 L 921.402 14.136 L 926.657 5.379 L 940.673 5.004 L 941.549 5.379 L 942.425 5.88 L 942.675 6.13 L 943.051 6.505 L 943.551 7.131 L 943.802 7.506 L 943.927 7.881 L 944.177 8.382 L 944.302 8.757 L 944.427 9.758 L 944.427 10.258 L 944.427 10.884 L 951.06 14.261 L 951.81 13.26 L 952.436 12.26 L 952.937 11.384 L 953.437 10.383 L 953.813 9.507 L 954.063 8.632 L 954.313 7.756 L 954.438 6.88 L 954.438 6.13 L 954.438 5.379 L 954.313 4.629 L 954.063 3.878 L 953.813 3.128 L 953.312 2.502 L 952.937 1.877 L 952.311 1.251 L 915.52 1.751 Z " fill-rule="evenodd" fill="rgb(0,0,0)"/><path d=" M 473.528 2273.288 L 489.295 2224.124 L 497.179 2199.229 L 504.938 2174.085 L 520.705 2123.295 L 536.222 2071.629 L 551.865 2019.213 L 567.382 1966.046 L 598.167 1857.085 L 613.433 1801.542 L 628.575 1745.123 L 643.717 1687.953 L 658.734 1629.907 L 673.5 1571.236 L 688.267 1511.689 L 702.908 1451.517 L 717.424 1390.469 L 731.815 1328.92 L 745.956 1266.496 L 759.972 1203.196 L 773.862 1139.271 L 787.502 1074.72 L 801.018 1009.294 L 814.282 943.242 L 827.422 876.439 L 840.311 809.011 L 853.076 740.833 L 865.464 672.029 L 877.728 602.474 L 889.741 532.294 L 901.505 461.363 L 913.017 389.807 L 924.155 317.625 L 925.406 318 L 914.269 390.182 L 902.756 461.738 L 890.993 532.669 L 878.979 602.849 L 866.716 672.404 L 854.327 741.208 L 841.563 809.387 L 828.673 876.815 L 815.534 943.617 L 802.269 1009.669 L 788.754 1075.095 L 775.114 1139.646 L 761.223 1203.572 L 747.208 1266.871 L 733.067 1329.296 L 718.676 1390.969 L 704.16 1452.017 L 689.518 1512.189 L 674.752 1571.736 L 659.985 1630.407 L 644.969 1688.453 L 629.827 1745.623 L 614.685 1802.042 L 599.418 1857.586 L 568.634 1966.547 L 553.116 2019.713 L 537.474 2072.13 L 521.957 2123.795 L 506.189 2174.585 L 498.43 2199.73 L 490.547 2224.625 L 474.779 2273.788 L 473.528 2273.288 Z " fill="rgb(0,0,0)"/></g></svg>