<svg xmlns="http://www.w3.org/2000/svg" version="1.1" xmlns:xlink="http://www.w3.org/1999/xlink" xmlns:svgjs="http://svgjs.com/svgjs" width="2560" height="560" preserveAspectRatio="none" viewBox="0 0 2560 560"><g mask="url(&quot;#SvgjsMask1065&quot;)" fill="none"><path d="M 0,135 C 128,114.4 384,37 640,32 C 896,27 1024,103 1280,110 C 1536,117 1664,52.2 1920,67 C 2176,81.8 2432,160.6 2560,184L2560 560L0 560z" fill="rgba(3, 105, 161, 1)"></path><path d="M 0,317 C 170.8,294.4 512.4,203.8 854,204 C 1195.6,204.2 1366.8,315.6 1708,318 C 2049.2,320.4 2389.6,236.4 2560,216L2560 560L0 560z" fill="rgba(14, 165, 233, 1)"></path><path d="M 0,449 C 170.8,455.4 512.4,487 854,481 C 1195.6,475 1366.8,418 1708,419 C 2049.2,420 2389.6,472.6 2560,486L2560 560L0 560z" fill="rgba(56, 189, 248, 1)"></path></g><defs><mask id="SvgjsMask1065"><rect width="2560" height="560" fill="#ffffff"></rect></mask></defs></svg>